<?xml version="1.0" encoding="UTF-8" standalone="no"?>
<svg
   xmlns:dc="http://purl.org/dc/elements/1.1/"
   xmlns:cc="http://creativecommons.org/ns#"
   xmlns:rdf="http://www.w3.org/1999/02/22-rdf-syntax-ns#"
   xmlns:svg="http://www.w3.org/2000/svg"
   xmlns="http://www.w3.org/2000/svg"
   version="1.1"
   id="svg2"
   viewBox="0 0 211.09817 203.6578"
   height="57.476757mm"
   width="59.576595mm">
  <defs
     id="defs4" />
  <metadata
     id="metadata7">
    <rdf:RDF>
      <cc:Work
         rdf:about="">
        <dc:format>image/svg+xml</dc:format>
        <dc:type
           rdf:resource="http://purl.org/dc/dcmitype/StillImage" />
        <dc:title></dc:title>
      </cc:Work>
    </rdf:RDF>
  </metadata>
  <g
     transform="translate(-34.676589,-12.348639)"
     id="layer1">
    <g
       transform="translate(37.444446,13.289994)"
       id="g3363">
      <path
         id="path3377"
         d="m 129.97583,164.68365 c -0.0255,-2.0625 0.23383,-3.05758 0.57624,-2.21129 0.3424,0.84629 0.36324,2.53379 0.0463,3.75 -0.31693,1.21621 -0.59708,0.52379 -0.62255,-1.53871 z m 77.355,0.10412 c -0.0542,-1.3177 0.24115,-2.05599 0.65653,-1.64062 0.41536,0.41536 0.45976,1.49348 0.0986,2.39583 -0.39902,0.99717 -0.69522,0.70098 -0.7552,-0.75521 z m -40.43497,-37.79909 c 0.84628,-0.3424 2.53378,-0.36323 3.75,-0.0463 1.21621,0.31693 0.52378,0.59708 -1.53872,0.62255 -2.0625,0.0255 -3.05757,-0.23382 -2.21128,-0.57623 z M 150.30524,69.683645 c 2.9e-4,-29.5625 0.16379,-41.477571 0.36333,-26.477937 0.19955,14.999635 0.1993,39.187135 -5.4e-4,53.75 -0.19982,14.562862 -0.36309,2.290437 -0.36279,-27.272063 z M 53.794643,116.87245 c 14.953125,-0.19941 39.421875,-0.19941 54.374997,0 14.95313,0.19941 2.71875,0.36256 -27.187497,0.36256 -29.90625,0 -42.140625,-0.16315 -27.1875,-0.36256 z m -25.3125,-13.4388 c 0.855861,-1.03125 1.837361,-1.875 2.181111,-1.875 0.34375,0 -0.07525,0.84375 -0.931111,1.875 -0.855862,1.03125 -1.837362,1.875 -2.181112,1.875 -0.34375,0 0.07525,-0.84375 0.931112,-1.875 z m 8.75,-10.000005 c 0.855861,-1.03125 1.837361,-1.875 2.181111,-1.875 0.34375,0 -0.07525,0.84375 -0.931111,1.875 -0.855862,1.03125 -1.837362,1.875 -2.181112,1.875 -0.34375,0 0.07525,-0.84375 0.931112,-1.875 z m 37.5,-11.25 c 0.855861,-1.03125 1.837361,-1.875 2.181111,-1.875 0.34375,0 -0.07525,0.84375 -0.931111,1.875 -0.855862,1.03125 -1.837362,1.875 -2.181112,1.875 -0.34375,0 0.07525,-0.84375 0.931112,-1.875 z m -21.5625,-0.202851 c 0.859375,-0.346765 2.265625,-0.346765 3.125,0 0.859375,0.346766 0.15625,0.630483 -1.5625,0.630483 -1.71875,0 -2.421875,-0.283717 -1.5625,-0.630483 z m -15.02379,-19.99207 c 0.846291,-0.342404 2.533791,-0.363246 3.75,-0.04631 1.21621,0.316925 0.52379,0.597074 -1.53871,0.622548 -2.0625,0.02548 -3.05758,-0.233831 -2.21129,-0.576235 z m 0.02379,-37.50793 c 0.859375,-0.346765 2.265625,-0.346765 3.125,0 0.859375,0.346766 0.15625,0.630482 -1.5625,0.630482 -1.71875,0 -2.421875,-0.283716 -1.5625,-0.630482 z"
         style="fill:#d2f3ee" />
      <path
         id="path3375"
         d="m 167.57068,202.05343 c 0.41536,-0.41536 1.49349,-0.45976 2.39584,-0.0986 0.99716,0.39902 0.70097,0.69522 -0.75521,0.7552 -1.3177,0.0542 -2.05599,-0.24116 -1.64063,-0.65653 z m -26.74799,-11.43228 c -1.55483,-1.98258 -1.51062,-2.02679 0.47195,-0.47195 1.20313,0.94356 2.1875,1.92793 2.1875,2.1875 0,1.0288 -1.02648,0.36663 -2.65945,-1.71555 z M 48.169643,123.122 c 18.734375,-0.19444 49.390625,-0.19444 68.124997,0 18.73438,0.19444 3.40625,0.35353 -34.062497,0.35353 -37.46875,0 -52.796875,-0.15909 -34.0625,-0.35353 z"
         style="fill:#afebe4" />
      <path
         id="path3373"
         d="m 165.16891,179.05865 c 0,-5.84375 0.21532,-8.23438 0.4785,-5.3125 0.26316,2.92187 0.26316,7.70312 0,10.625 -0.26318,2.92187 -0.4785,0.53125 -0.4785,-5.3125 z m 0,-28.75 c 0,-5.84375 0.21532,-8.23438 0.4785,-5.3125 0.26316,2.92187 0.26316,7.70312 0,10.625 -0.26318,2.92187 -0.4785,0.53125 -0.4785,-5.3125 z m 3.88986,-87.500005 c 0,-31.96875 0.16187,-45.046875 0.35972,-29.0625 0.19785,15.984375 0.19785,42.140625 0,58.125 -0.19785,15.984375 -0.35972,2.90625 -0.35972,-29.0625 z M 58.580826,43.537812 c -0.05428,-1.317708 0.24116,-2.055989 0.656525,-1.640625 0.415364,0.415365 0.459773,1.49349 0.09869,2.395833 -0.399033,0.997167 -0.695229,0.70097 -0.755209,-0.755208 z"
         style="fill:#a4e7dd" />
      <path
         id="path3371"
         d="m 172.66891,179.05865 c 0,-5.84375 0.21532,-8.23438 0.4785,-5.3125 0.26316,2.92187 0.26316,7.70312 0,10.625 -0.26318,2.92187 -0.4785,0.53125 -0.4785,-5.3125 z M 32.458226,163.12246 c 16.280595,-0.19726 43.280595,-0.19746 60,-4.5e-4 16.719404,0.19701 3.398917,0.35841 -29.601083,0.35865 -33,2.5e-4 -46.679513,-0.16095 -30.398917,-0.3582 z M 172.66891,150.30865 c 0,-5.84375 0.21532,-8.23438 0.4785,-5.3125 0.26316,2.92187 0.26316,7.70312 0,10.625 -0.26318,2.92187 -0.4785,0.53125 -0.4785,-5.3125 z M 48.169643,15.621998 c 18.734375,-0.194443 49.390625,-0.194443 68.124997,0 18.73438,0.194442 3.40625,0.353532 -34.062497,0.353532 -37.46875,0 -52.796875,-0.15909 -34.0625,-0.353532 z"
         style="fill:#90e2d6" />
      <path
         id="path3369"
         d="m 166.89586,189.48872 c 0.84628,-0.3424 2.53378,-0.36324 3.75,-0.0464 1.21621,0.31692 0.52378,0.59707 -1.53872,0.62255 -2.0625,0.0255 -3.05757,-0.23383 -2.21128,-0.57624 z m -18.76393,-21.34349 c 2.90113,-0.26215 7.96363,-0.26527 11.25,-0.007 3.28636,0.25834 0.91271,0.47284 -5.27479,0.47664 -6.1875,0.004 -8.87635,-0.20756 -5.97521,-0.46971 z m 30,0 c 2.90113,-0.26215 7.96363,-0.26527 11.25,-0.007 3.28636,0.25834 0.91271,0.47284 -5.27479,0.47664 -6.1875,0.004 -8.87635,-0.20756 -5.97521,-0.46971 z m -30,-7.5 c 2.90113,-0.26215 7.96363,-0.26527 11.25,-0.007 3.28636,0.25834 0.91271,0.47284 -5.27479,0.47664 -6.1875,0.004 -8.87635,-0.20756 -5.97521,-0.46971 z m 30.03771,-0.001 c 2.92188,-0.26316 7.70313,-0.26316 10.625,0 2.92188,0.26318 0.53125,0.4785 -5.3125,0.4785 -5.84375,0 -8.23437,-0.21532 -5.3125,-0.4785 z m -11.27378,-21.15466 c 0.84628,-0.3424 2.53378,-0.36324 3.75,-0.0462 1.21621,0.31693 0.52378,0.59708 -1.53872,0.62255 -2.0625,0.0255 -3.05757,-0.23382 -2.21128,-0.57624 z m -30.91372,-4.80567 c 0.85587,-1.03125 1.83737,-1.875 2.18112,-1.875 0.34375,0 -0.0753,0.84375 -0.93112,1.875 -0.85586,1.03125 -1.83736,1.875 -2.18111,1.875 -0.34375,0 0.0753,-0.84375 0.93111,-1.875 z M 43.482143,87.183645 c 0.855861,-1.03125 1.837361,-1.875 2.181111,-1.875 0.34375,0 -0.07525,0.84375 -0.931111,1.875 -0.855862,1.03125 -1.837362,1.875 -2.181112,1.875 -0.34375,0 0.07525,-0.84375 0.931112,-1.875 z"
         style="fill:#82ded1" />
      <path
         id="path3367"
         d="m 140.50259,189.05505 c -2.48625,-2.75199 -4.52045,-5.39574 -4.52045,-5.875 0,-0.47928 0.42344,-0.33703 0.94097,0.3161 0.51753,0.65312 2.87788,3.29687 5.24521,5.875 2.36734,2.57812 3.9781,4.6875 3.57949,4.6875 -0.39862,0 -2.75897,-2.25163 -5.24522,-5.0036 z m 51.72955,4.84632 c 0,-0.34375 1.6875,-2.24172 3.75,-4.21772 2.0625,-1.976 3.75,-3.31148 3.75,-2.96773 0,0.34375 -1.6875,2.24173 -3.75,4.21773 -2.0625,1.976 -3.75,3.31147 -3.75,2.96772 z m 13.84869,-24.11356 c -0.0542,-1.3177 0.24115,-2.05599 0.65653,-1.64063 0.41536,0.41537 0.45976,1.49349 0.0986,2.39584 -0.39902,0.99716 -0.69522,0.70098 -0.7552,-0.75521 z m -82.5,-8.75 c -0.0543,-1.3177 0.24115,-2.05599 0.65653,-1.64063 0.41536,0.41537 0.45976,1.49349 0.0986,2.39584 -0.39902,0.99716 -0.69522,0.70098 -0.7552,-0.75521 z m 82.5,-1.25 c -0.0542,-1.3177 0.24115,-2.05599 0.65653,-1.64063 0.41536,0.41538 0.45976,1.49349 0.0986,2.39584 -0.39902,0.99716 -0.69522,0.70098 -0.7552,-0.75521 z M 127.23214,147.0059 c 0,-0.67069 0.87478,-2.31132 1.94397,-3.64584 1.83296,-2.28789 1.85898,-2.248 0.45567,0.69859 -1.82226,3.82628 -2.39964,4.53542 -2.39964,2.94725 z m 11.25,-4.35453 c 0,-0.34375 1.6875,-2.24172 3.75,-4.21772 2.0625,-1.976 3.75,-3.31148 3.75,-2.96773 0,0.34375 -1.6875,2.24173 -3.75,4.21773 -2.0625,1.976 -3.75,3.31147 -3.75,2.96772 z m 56.875,-3.59272 c -1.976,-2.0625 -3.31147,-3.75 -2.96772,-3.75 0.34375,0 2.24172,1.6875 4.21772,3.75 1.976,2.0625 3.31148,3.75 2.96773,3.75 -0.34375,0 -2.24173,-1.6875 -4.21773,-3.75 z m -63.125,-0.625 c 0.85587,-1.03125 1.83737,-1.875 2.18112,-1.875 0.34375,0 -0.0753,0.84375 -0.93112,1.875 -0.85586,1.03125 -1.83736,1.875 -2.18111,1.875 -0.34375,0 0.0753,-0.84375 0.93111,-1.875 z m 55.55142,-5.06897 c -2.33003,-1.86673 -2.3147,-1.88981 0.38608,-0.58101 1.54688,0.74961 2.8125,1.62439 2.8125,1.94395 0,0.95653 -0.64826,0.6803 -3.19858,-1.36294 z m -48.15422,-2.26035 c 1.66463,-2.04972 6.3528,-5.149 6.3528,-4.19973 0,0.23865 -1.82812,1.77221 -4.0625,3.40791 -2.51387,1.84031 -3.38693,2.14216 -2.2903,0.79182 z M 27.232143,105.93365 c 0.855861,-1.03125 1.837361,-1.875 2.181111,-1.875 0.34375,0 -0.07525,0.84375 -0.931111,1.875 -0.855862,1.03125 -1.837362,1.875 -2.181112,1.875 -0.34375,0 0.07525,-0.84375 0.931112,-1.875 z m 8.75,-10.000005 c 0.855861,-1.03125 1.837361,-1.875 2.181111,-1.875 0.34375,0 -0.07525,0.84375 -0.931111,1.875 -0.855862,1.03125 -1.837362,1.875 -2.181112,1.875 -0.34375,0 0.07525,-0.84375 0.931112,-1.875 z m -10.159444,-40.3125 c -1.554839,-1.98257 -1.510626,-2.026782 0.471944,-0.471944 1.203125,0.943555 2.1875,1.92793 2.1875,2.1875 0,1.028793 -1.026483,0.366629 -2.659444,-1.715556 z m 0.159444,-24.6875 c 0.855861,-1.03125 1.837361,-1.875 2.181111,-1.875 0.34375,0 -0.07525,0.84375 -0.931111,1.875 -0.855862,1.03125 -1.837362,1.875 -2.181112,1.875 -0.34375,0 0.07525,-0.84375 0.931112,-1.875 z"
         style="fill:#68d8c8" />
      <path
         id="path3365"
         d="m 157.64771,199.32092 c -12.34604,-4.41195 -21.36044,-13.90305 -24.95785,-26.27772 -2.37177,-8.1586 -1.6299,-14.5312 2.74275,-23.56023 8.96385,-18.50931 31.45941,-26.34411 49.67981,-17.30259 22.92845,11.37782 28.35204,38.05464 11.52375,56.68154 -9.62591,10.65473 -26.08516,15.07006 -38.98846,10.459 z m 15.83443,-19.63727 0,-10.625 10.625,0 10.625,0 0,-4.375 0,-4.375 -10.625,0 -10.625,0 0,-10.625 0,-10.625 -4.375,0 -4.375,0 0,10.625 0,10.625 -10.625,0 -10.625,0 0,4.375 0,4.375 10.625,0 10.625,0 0,10.625 0,10.625 4.375,0 4.375,0 0,-10.625 z M -0.80357155,160.84436 C -2.5469945,159.10093 -2.7678573,150.17607 -2.7678573,81.469359 c 0,-75.7440471 0.053825,-77.4645393 2.5,-79.9107137 2.4481415,-2.44814156 4.1666666,-2.50000005 82.8468673,-2.50000005 70.69711,0 80.68052,0.23370271 83.125,1.94588005 l 2.77813,1.9458798 0,58.6553049 0,58.65531 -2.8125,0.53544 c -1.54687,0.2945 -5.48437,1.07093 -8.75,1.72541 l -5.9375,1.18995 0,-54.201588 0,-54.201587 -68.749997,0 -68.75,0 0,54.375 0,54.375005 68.4375,0.0553 c 67.752317,0.0547 68.392977,0.0787 63.990667,2.40638 -10.42069,5.50967 -18.47034,16.77833 -21.23437,29.72587 l -1.40096,6.5625 -61.057132,0 c -53.8398187,0 -61.28932405,-0.23219 -63.02141955,-1.96429 z M 25.352998,114.83519 c -2.177582,-1.59229 -2.208114,-1.94905 -0.401168,-4.6875 1.07569,-1.63023 6.540068,-8.14379 12.14306,-14.474595 11.512223,-13.007618 15.539598,-14.923866 23.443723,-11.154651 9.953051,4.746279 13.157928,2.560023 26.590718,-18.139264 9.276245,-14.29425 11.762152,-17.320535 14.227749,-17.320535 1.64318,0 3.83036,0.984375 4.86041,2.1875 4.02857,4.705465 33.51465,57.542785 33.51465,60.056265 0,1.46755 -1.08802,3.25057 -2.41782,3.96226 -1.55883,0.83425 -21.45833,1.29398 -56.011089,1.29398 -43.571066,0 -54.034028,-0.3223 -55.950233,-1.72346 z m 7.504145,-55.0411 C 20.462355,54.285184 17.889016,39.228455 27.84785,30.484484 40.078536,19.745799 58.482143,27.752158 58.482143,43.811716 c 0,12.351548 -14.061568,21.121782 -25.625,15.982374 z"
         style="fill:#4cd1be" />
    </g>
    <path
       id="path3481"
       d=""
       style="fill:#ffffff;fill-opacity:1" />
    <path
       id="path3511"
       d=""
       style="fill:#ffffff;fill-opacity:1" />
  </g>
</svg>
